<svg xmlns="http://www.w3.org/2000/svg" id="Ebene_1" data-name="Ebene 1" viewBox="0 0 56 58"><defs><style>.cls-1{fill:#c33}.cls-2{fill:#f2eb11}.cls-3{fill:gray}</style></defs><title>grepwin</title><path d="M54,60.76,37.6,44.42a1.09,1.09,0,0,1,.16-1.51l4.08-4.07a1.1,1.1,0,0,1,1.52-.16L59.76,55a1.09,1.09,0,0,1-.16,1.51L55.52,60.6A1.09,1.09,0,0,1,54,60.76Z" class="cls-1" transform="translate(-4 -3)"/><ellipse cx="22.84" cy="22.78" class="cls-2" rx="20.34" ry="20.28"/><path d="M26.84,8A17.78,17.78,0,1,1,9,25.78,17.83,17.83,0,0,1,26.84,8m0-5A22.78,22.78,0,1,0,49.68,25.78,22.81,22.81,0,0,0,26.84,3Z" class="cls-3" transform="translate(-4 -3)"/></svg>